
<svg xmlns="http://www.w3.org/2000/svg" version="1.1" xmlns:xlink="http://www.w3.org/1999/xlink" preserveAspectRatio="none" x="0px" y="0px" width="32px" height="32px" viewBox="0 0 32 32">
<defs>
<g id="Layer1_0_MEMBER_0_MEMBER_0_FILL">
<path fill="#FFFFFF" stroke="none" d="
M 1551.15 -42.9
L 1551.15 -45.05 1549.05 -45.05 1549.05 -47.15 1546.85 -47.15 1546.85 -42.9 1551.15 -42.9
M 1557.5 -45.05
L 1554.05 -45.05 1554.05 -42.9 1557.5 -42.9 1557.5 -45.05
M 1564.25 -45.05
L 1560.8 -45.05 1560.8 -42.9 1564.25 -42.9 1564.25 -45.05
M 1571.4 -42.9
L 1571.4 -47.3 1569.2 -47.3 1569.2 -45.1 1567.1 -45.1 1567.1 -42.9 1571.4 -42.9
M 1569.2 -59.95
L 1569.2 -56.5 1571.35 -56.5 1571.35 -59.95 1569.2 -59.95
M 1569.2 -53.75
L 1569.2 -50.3 1571.35 -50.3 1571.35 -53.75 1569.2 -53.75
M 1560.7 -66.9
L 1560.7 -64.7 1564.15 -64.7 1564.15 -66.9 1560.7 -66.9
M 1571.4 -62.5
L 1571.4 -66.9 1567 -66.9 1567 -64.7 1569.2 -64.7 1569.2 -62.5 1571.4 -62.5
M 1549.05 -59.9
L 1546.85 -59.9 1546.85 -56.45 1549.05 -56.45 1549.05 -59.9
M 1549.05 -53.7
L 1546.85 -53.7 1546.85 -50.25 1549.05 -50.25 1549.05 -53.7
M 1557.45 -66.9
L 1554 -66.9 1554 -64.7 1557.45 -64.7 1557.45 -66.9
M 1551.15 -64.7
L 1551.15 -66.9 1546.85 -66.9 1546.85 -62.5 1549.05 -62.5 1549.05 -64.7 1551.15 -64.7 Z"/>
</g>

<g id="Layer1_0_MEMBER_1_FILL">
<path fill="#666666" stroke="none" d="
M 1611.4 24.2
Q 1611.4 23.55 1611.5 23.05
L 1611.5 23
Q 1610.744921875 23.405078125 1610.1 24.05 1608.55 25.65 1608.55 27.95 1608.5 30.15 1610.1 31.75 1611.7 33.35 1614 33.35 1616.25 33.35 1617.8 31.75 1618.4244140625 31.1255859375 1618.8 30.4 1618.278125 30.45 1617.7 30.45 1615.1 30.5 1613.25 28.65 1611.4 26.8 1611.4 24.2 Z"/>

<path fill="#999999" stroke="none" d="
M 1622.5 26.7
Q 1621.9908203125 26.75 1621.4 26.75 1618.8 26.8 1616.95 24.95 1615.1 23.1 1615.1 20.5 1615.1 19.85 1615.2 19.35 1615.2046875 19.3177734375 1615.2 19.25 1614.4779296875 19.6720703125 1613.85 20.3 1612.7919921875 21.325 1612.4 22.65 1612.25 23.37109375 1612.25 24.15 1612.25 26.4 1613.85 28 1615.45 29.6 1617.7 29.6 1618.508203125 29.58203125 1619.2 29.35 1620.5248046875 28.9931640625 1621.55 28 1622.154296875 27.395703125 1622.5 26.7 Z"/>

<path fill="#CCCCCC" stroke="none" d="
M 1623.9 22.9
Q 1622.130859375 22.580859375 1620.75 21.2 1619.3486328125 19.7986328125 1619 17.95 1618.9 17.38046875 1618.9 16.75 1618.9 16.12421875 1619 15.55 1618.272265625 15.9576171875 1617.65 16.6 1617.022265625 17.2279296875 1616.6 17.95 1616.3958984375 18.3921875 1616.25 18.85 1616.0181640625 19.6041015625 1616 20.4 1616 22.7 1617.6 24.3 1619.15 25.85 1621.45 25.85 1622.2365234375 25.8671875 1622.95 25.7 1623.4662109375 25.5669921875 1623.95 25.3 1624.7005859375 24.9494140625 1625.35 24.3 1625.9626953125 23.667578125 1626.3 22.9 1625.7771484375 23 1625.2 23 1624.540625 23.0126953125 1623.9 22.9 Z"/>

<path fill="#FFFFFF" stroke="none" d="
M 1621.35 12.85
Q 1620.695703125 13.483984375 1620.3 14.25 1620.08359375 14.6869140625 1619.95 15.15 1619.75 15.893359375 1619.75 16.7 1619.75 17.511328125 1619.95 18.25 1620.326953125 19.526953125 1621.35 20.55 1622.3884765625 21.5884765625 1623.65 21.9 1624.377734375 22.117578125 1625.15 22.1 1625.97890625 22.1 1626.7 21.9 1627.2048828125 21.7677734375 1627.65 21.55 1628.40390625 21.17578125 1629.05 20.55 1630.65 18.95 1630.6 16.65 1630.65 14.45 1629.05 12.85 1627.45 11.25 1625.2 11.25 1622.95 11.25 1621.35 12.85 Z"/>
</g>
</defs>

<g transform="matrix( 1.2218017578125, 0, 0, 1.249786376953125, -1888.95,84.6) ">
<use xlink:href="#Layer1_0_MEMBER_0_MEMBER_0_FILL"/>
</g>

<g transform="matrix( 1.03448486328125, 0, 0, 1.063812255859375, -1659.4,-7.55) ">
<use xlink:href="#Layer1_0_MEMBER_1_FILL"/>
</g>
</svg>
