<?xml version="1.0" encoding="utf-8"?>
<!-- Generator: Adobe Illustrator 21.0.0, SVG Export Plug-In . SVG Version: 6.00 Build 0)  -->
<svg version="1.1" id="Layer_1" xmlns="http://www.w3.org/2000/svg" xmlns:xlink="http://www.w3.org/1999/xlink" x="0px" y="0px"
	 viewBox="0 0 32 32" style="enable-background:new 0 0 32 32;" xml:space="preserve">
<style type="text/css">
	.st0{fill:#FFFFFF;}
</style>
<g>
	<path class="st0" d="M0.5,25.7c0-4.9,0-9.8,0-14.8c0,0,0,0,0-0.1c0.2-1.5,1.6-2.7,3.2-2.6c1.1,0,2.2,0,3.3,0c0.8,0,1.2-0.3,1.5-1.1
		c0.3-0.8,0.6-1.7,0.8-2.5c0.2-0.7,0.7-1.1,1.5-1.1c3.4,0,6.8,0,10.2,0c0.7,0,1.2,0.4,1.5,1c0.3,0.8,0.6,1.7,0.9,2.5
		c0.2,0.7,0.7,1.1,1.5,1.1c1.1,0,2.3,0,3.4,0c1.9,0,3.2,1.4,3.2,3.3c0,2.3,0,4.5,0,6.8c0,2.3,0,4.6,0,6.9c0,0.7-0.2,1.4-0.6,1.9
		c-0.7,0.9-1.6,1.3-2.7,1.3c-8.1,0-16.3,0-24.4,0c-0.1,0-0.2,0-0.3,0c-0.9-0.1-1.7-0.4-2.3-1.2C0.8,26.8,0.6,26.2,0.5,25.7z
		 M16,25.3c4.2,0,7.7-3.4,7.8-7.7c0-4.3-3.4-7.7-7.7-7.8c-4.3,0-7.7,3.4-7.8,7.7C8.2,21.8,11.7,25.3,16,25.3z"/>
	<path class="st0" d="M16,22.2c-2.6,0-4.7-2.1-4.7-4.7c0-2.6,2.1-4.6,4.7-4.6c2.6,0,4.7,2.1,4.7,4.7C20.6,20.1,18.6,22.2,16,22.2z"
		/>
</g>
</svg>
