<?xml version="1.0" encoding="utf-8"?>
<!-- Generator: Adobe Illustrator 21.0.0, SVG Export Plug-In . SVG Version: 6.00 Build 0)  -->
<svg version="1.1" id="Layer_1" xmlns="http://www.w3.org/2000/svg" xmlns:xlink="http://www.w3.org/1999/xlink" x="0px" y="0px"
	 viewBox="0 0 32 32" style="enable-background:new 0 0 32 32;" xml:space="preserve">
<style type="text/css">
	.st0{fill:#FFFFFF;}
</style>
<g>
	<path class="st0" d="M16.2,31.5c-8.6,0.1-15.5-6.7-15.7-15C0.2,7.7,7.2,0.7,15.7,0.5c8.7-0.2,15.7,6.7,15.8,15.2
		C31.7,24.4,24.7,31.4,16.2,31.5z M11.3,14.9c0.1,0,0.2-0.1,0.3-0.1c0.5-0.2,1-0.3,1.5-0.2c0.6,0,1,0.3,1,0.8c0,0.3,0.1,0.7,0,1.1
		c-0.3,1.3-0.6,2.5-1,3.7c-0.3,0.9-0.5,1.8-0.5,2.8c0,1,0.4,1.7,1.3,2.2c0.8,0.4,1.8,0.5,2.7,0.3c0.8-0.2,1.5-0.5,2.2-0.7
		c0.3-0.1,0.5-0.3,0.5-0.6c0-0.2,0.1-0.4,0.1-0.6c-0.1,0-0.1,0.1-0.2,0.1c-0.6,0.2-1.3,0.4-1.9,0.2c-0.4-0.1-0.6-0.3-0.7-0.7
		c-0.1-0.5,0-1.1,0.1-1.6c0.3-1.2,0.6-2.3,0.9-3.5c0.3-0.9,0.5-1.7,0.4-2.6c0-1-0.4-1.7-1.3-2.1c-0.7-0.4-1.5-0.4-2.3-0.3
		c-1,0.1-1.9,0.5-2.8,0.9c0,0-0.1,0.1-0.1,0.1C11.5,14.3,11.4,14.6,11.3,14.9z M19.7,8.6c0-0.3-0.1-0.7-0.3-1
		c-0.9-1.4-2.8-1.5-3.9-0.3c-0.6,0.7-0.7,1.6-0.3,2.4c0.4,0.7,1,1.1,1.9,1.2C18.5,11,19.8,10,19.7,8.6z"/>
</g>
</svg>
