<?xml version="1.0" encoding="utf-8"?>
<!-- Generator: Adobe Illustrator 21.0.0, SVG Export Plug-In . SVG Version: 6.00 Build 0)  -->
<svg version="1.1" id="Layer_1" xmlns="http://www.w3.org/2000/svg" xmlns:xlink="http://www.w3.org/1999/xlink" x="0px" y="0px"
	 viewBox="0 0 32 32" style="enable-background:new 0 0 32 32;" xml:space="preserve">
<style type="text/css">
	.st0{fill:#FFFFFF;}
</style>
<g>
	<path class="st0" d="M0.5,6.5c0-0.1,0.1-0.2,0.1-0.4c0.3-1.2,1.2-2.1,2.5-2.2c0.7-0.1,1.4,0,2.2,0c0,0.7,0,1.3,0,1.9
		c0,1.1,0.7,1.8,1.7,2C8.1,8,9.2,7.1,9.2,6c0-0.7,0-1.4,0-2.1c1.3,0,2.5,0,3.9,0c0,0.1,0,0.2,0,0.3c0,0.6,0,1.2,0,1.7
		c0,1.1,0.9,1.9,2,1.9C16.1,7.9,17,7,17,5.9c0-0.7,0-1.3,0-2c1.3,0,2.5,0,3.9,0c0,0.4,0,0.7,0,1.1c0,0.5,0,0.9,0.1,1.4
		c0.2,0.9,1.1,1.6,2,1.5c1-0.1,1.8-0.9,1.8-1.9c0-0.7,0-1.3,0-2c2.4-0.4,3.9,1.1,3.9,3c0,4.3,0,8.7,0,13c0,0.1,0,0.2,0,0.4
		c-0.6,0-1.3,0-1.9,0c0-3.2,0-6.4,0-9.7c-7.8,0-15.5,0-23.3,0c0,0.1,0,0.2,0,0.3c0,3.6,0,7.2,0,10.8c0,1.3,1.1,2.4,2.3,2.4
		c1.4,0,2.5-1,2.5-2.4c0-0.4,0.2-0.6,0.6-0.6c4.2,0,8.4,0,12.6,0c3.1,0,6.2,0,9.3,0c0.5,0,0.7,0.2,0.7,0.7c-0.2,2.4-2,4.1-4.4,4.1
		c-7,0-14.1,0-21.1,0c-0.9,0-1.7-0.2-2.4-0.6c0,0-0.1,0-0.2-0.1c0,0.7,0,1.3,0,2c0,0.5,0.5,0.7,1,0.7c2.9,0,5.7,0,8.6,0
		c4.2,0,8.3,0,12.5,0c0.7,0,1-0.3,1.2-0.9c0.6-0.1,1.2-0.1,1.9-0.2c-0.1,0.3-0.1,0.7-0.2,1c-0.4,1.2-1.5,2-2.8,2
		c-6.8,0-13.7,0-20.5,0c-0.7,0-1.4,0-2.1,0c-1.3-0.2-2.2-1.1-2.5-2.4c0-0.1,0-0.1-0.1-0.2C0.5,20.5,0.5,13.5,0.5,6.5z"/>
	<path class="st0" d="M6.3,15.5c-0.5,0-0.9,0-1.4,0c-0.4,0-0.6-0.2-0.6-0.6c0-0.6,0-1.1,0-1.7c0-0.4,0.2-0.6,0.6-0.6
		c0.9,0,1.8,0,2.7,0c0.4,0,0.6,0.2,0.6,0.6c0,0.6,0,1.2,0,1.8c0,0.4-0.2,0.6-0.6,0.6C7.2,15.5,6.8,15.5,6.3,15.5
		C6.3,15.5,6.3,15.5,6.3,15.5z"/>
	<path class="st0" d="M12.1,12.6c0.4,0,0.9,0,1.3,0c0.4,0,0.6,0.2,0.6,0.6c0,0.6,0,1.1,0,1.7c0,0.4-0.2,0.6-0.6,0.6
		c-0.9,0-1.8,0-2.7,0c-0.4,0-0.6-0.2-0.6-0.6c0-0.6,0-1.1,0-1.7c0-0.4,0.2-0.6,0.6-0.6C11.2,12.6,11.7,12.6,12.1,12.6
		C12.1,12.6,12.1,12.6,12.1,12.6z"/>
	<path class="st0" d="M17.9,15.5c-0.5,0-0.9,0-1.4,0c-0.4,0-0.5-0.2-0.5-0.5c0-0.6,0-1.2,0-1.8c0-0.4,0.2-0.6,0.6-0.6
		c0.9,0,1.8,0,2.7,0c0.4,0,0.6,0.2,0.6,0.6c0,0.6,0,1.2,0,1.8c0,0.4-0.2,0.6-0.6,0.6C18.8,15.5,18.4,15.5,17.9,15.5z"/>
	<path class="st0" d="M23.7,15.5c-0.4,0-0.9,0-1.3,0c-0.4,0-0.6-0.2-0.6-0.6c0-0.6,0-1.2,0-1.8c0-0.4,0.2-0.5,0.6-0.6
		c0.9,0,1.8,0,2.7,0c0.4,0,0.6,0.2,0.6,0.6c0,0.6,0,1.2,0,1.8c0,0.4-0.2,0.5-0.6,0.5C24.7,15.5,24.2,15.5,23.7,15.5z"/>
	<path class="st0" d="M6.3,19.4c-0.4,0-0.9,0-1.3,0c-0.4,0-0.6-0.2-0.6-0.6c0-0.6,0-1.1,0-1.7c0-0.4,0.2-0.6,0.6-0.6
		c0.9,0,1.8,0,2.7,0c0.4,0,0.6,0.2,0.6,0.6c0,0.6,0,1.1,0,1.7c0,0.4-0.2,0.6-0.6,0.6C7.2,19.4,6.8,19.4,6.3,19.4z"/>
	<path class="st0" d="M12.1,19.4c-0.4,0-0.9,0-1.3,0c-0.4,0-0.6-0.2-0.6-0.6c0-0.6,0-1.2,0-1.8c0-0.4,0.2-0.6,0.6-0.6
		c0.9,0,1.8,0,2.7,0c0.4,0,0.6,0.2,0.6,0.6c0,0.6,0,1.2,0,1.8c0,0.4-0.2,0.5-0.5,0.5C13,19.4,12.6,19.4,12.1,19.4
		C12.1,19.4,12.1,19.4,12.1,19.4z"/>
	<path class="st0" d="M17.9,19.4c-0.4,0-0.9,0-1.3,0c-0.4,0-0.6-0.2-0.6-0.6c0-0.6,0-1.2,0-1.8c0-0.4,0.2-0.6,0.6-0.6
		c0.9,0,1.8,0,2.7,0c0.4,0,0.6,0.2,0.6,0.6c0,0.6,0,1.2,0,1.7c0,0.4-0.2,0.6-0.6,0.6C18.8,19.4,18.4,19.4,17.9,19.4z"/>
	<path class="st0" d="M23.7,19.4c-0.4,0-0.9,0-1.3,0c-0.4,0-0.6-0.2-0.6-0.6c0-0.6,0-1.1,0-1.7c0-0.4,0.2-0.6,0.6-0.6
		c0.9,0,1.8,0,2.7,0c0.4,0,0.6,0.2,0.6,0.6c0,0.6,0,1.2,0,1.8c0,0.4-0.2,0.6-0.6,0.6C24.6,19.4,24.2,19.4,23.7,19.4z"/>
	<path class="st0" d="M8.2,4.4c0,0.5,0,0.9,0,1.4c0,0.6-0.4,1-1,1c-0.5,0-1-0.4-1-1c0-0.9,0-1.8,0-2.8c0-0.6,0.4-1,1-1
		c0.5,0,1,0.4,1,1C8.2,3.4,8.2,3.9,8.2,4.4C8.2,4.4,8.2,4.4,8.2,4.4z"/>
	<path class="st0" d="M16,4.4c0,0.5,0,0.9,0,1.4c0,0.6-0.4,1-1,1c-0.5,0-0.9-0.4-1-1c0-0.9,0-1.9,0-2.8c0-0.6,0.4-1,1-1
		c0.5,0,0.9,0.4,1,1C16,3.4,16,3.9,16,4.4z"/>
	<path class="st0" d="M23.7,4.4c0,0.5,0,0.9,0,1.4c0,0.6-0.4,1-1,1c-0.5,0-0.9-0.4-0.9-1c0-0.9,0-1.9,0-2.8c0-0.6,0.4-1,0.9-1
		c0.5,0,1,0.4,1,1C23.8,3.4,23.7,3.9,23.7,4.4z"/>
</g>
</svg>
