<?xml version="1.0" encoding="utf-8"?>
<!-- Generator: Adobe Illustrator 21.0.0, SVG Export Plug-In . SVG Version: 6.00 Build 0)  -->
<svg version="1.1" id="Layer_1" xmlns="http://www.w3.org/2000/svg" xmlns:xlink="http://www.w3.org/1999/xlink" x="0px" y="0px"
	 viewBox="0 0 32 32" style="enable-background:new 0 0 32 32;" xml:space="preserve">
<style type="text/css">
	.st0{fill:#FFFFFF;}
</style>
<g>
	<path class="st0" d="M6.5,14.5c-0.2,0.8-0.2,1.5-0.1,2.3c0.3,4.5,3.8,8.3,8.5,9.1c4.5,0.8,8.2-0.6,10.9-4.3
		c0.3-0.4,0.5-0.4,0.9-0.2c0.8,0.4,1.5,0.9,2.3,1.3c0.4,0.2,0.4,0.5,0.2,0.9c-2.2,3.3-5.3,5.3-9.2,6.1c-4.2,0.9-8.1,0.1-11.6-2.4
		c-3.3-2.3-5.2-5.5-5.8-9.4c-0.2-1.3-0.2-2.6,0-4c0-0.2,0-0.4-0.3-0.4c-0.5-0.1-0.9-0.2-1.4-0.3c-0.2,0-0.5-0.1-0.5-0.4
		c0-0.2,0.1-0.4,0.2-0.5c1.7-1.7,3.4-3.4,5.1-5.1c0.4-0.4,0.8-0.3,1,0.2c0.9,2.2,1.7,4.5,2.6,6.7c0.1,0.2,0.1,0.4,0,0.6
		C9.2,15,9,15,8.8,14.9c-0.6-0.1-1.3-0.3-1.9-0.4C6.8,14.5,6.7,14.5,6.5,14.5z"/>
	<path class="st0" d="M23.5,17c0.2,0,0.4,0,0.6,0c0.3,0,0.4,0.1,0.4,0.4c0,0.4,0,0.8,0,1.2c0,0.3-0.1,0.4-0.4,0.4
		c-0.2,0-0.4,0-0.6,0c0,0.5,0,1,0,1.5c0,0.4-0.1,0.5-0.5,0.5c-0.3,0-0.7,0-1,0c-0.3,0-0.4-0.1-0.4-0.4c0-0.5,0-1,0-1.6
		c-0.1,0-0.3,0-0.4,0c-1,0-2.1,0-3.1,0c-0.4,0-0.5-0.1-0.5-0.5c-0.1-1,0.2-1.9,0.8-2.7c1.1-1.5,2-3,3-4.5c0.1-0.2,0.3-0.3,0.6-0.3
		c0.4,0,0.8,0,1.1,0c0.4,0,0.5,0.1,0.5,0.5c0,1.7,0,3.5,0,5.2C23.5,16.8,23.5,16.9,23.5,17z M21.5,14C21.5,14,21.4,14,21.5,14
		c-0.7,1-1.4,2-2.1,3c0.7,0,1.4,0,2.1,0C21.5,16,21.5,15,21.5,14z"/>
	<path class="st0" d="M13.5,19c0.8,0,1.6,0,2.4,0c0.5,0,0.6,0.1,0.6,0.6c0,0.3,0,0.7,0,1c0,0.3-0.1,0.4-0.4,0.4c-1.7,0-3.4,0-5.2,0
		c-0.3,0-0.4-0.1-0.4-0.4c0-0.4,0-0.9,0-1.3c0-0.2,0.1-0.3,0.2-0.4c0.8-0.7,1.6-1.4,2.3-2.1c0.4-0.5,0.8-1,1.2-1.5
		c0.2-0.3,0.3-0.7,0.4-1c0.2-0.9-0.5-1.4-1.3-1.2c-0.5,0.1-0.9,0.4-1.3,0.7c-0.3,0.2-0.4,0.2-0.7-0.1c-0.2-0.3-0.4-0.5-0.6-0.8
		c-0.2-0.2-0.2-0.4,0.1-0.5c0.7-0.6,1.5-1,2.4-1.2c1.8-0.3,3.5,1,3.3,3.3c-0.1,1.1-0.7,2.1-1.4,3C14.6,17.8,14,18.4,13.5,19z"/>
	<path class="st0" d="M18.5,4c0,0.5,0,0.9,0,1.4c0,0.4-0.2,0.6-0.6,0.6c-0.3,0-0.5,0-0.8,0c-0.4,0-0.6-0.2-0.6-0.6c0-1,0-1.9,0-2.9
		C16.5,2.2,16.7,2,17,2c0.3,0,0.6,0,0.9,0c0.3,0,0.5,0.2,0.5,0.5C18.5,3,18.5,3.5,18.5,4z"/>
	<path class="st0" d="M29.5,15c0.5,0,0.9,0,1.4,0c0.4,0,0.6,0.2,0.6,0.6c0,0.3,0,0.6,0,0.8c0,0.3-0.2,0.5-0.5,0.6c-1,0-1.9,0-2.9,0
		c-0.4,0-0.6-0.2-0.6-0.6c0-0.3,0-0.5,0-0.8c0-0.4,0.2-0.6,0.6-0.6C28.6,15,29,15,29.5,15C29.5,15,29.5,15,29.5,15z"/>
	<path class="st0" d="M11.2,3.5c0.1,0.1,0.3,0.2,0.4,0.3c0.5,0.8,1,1.7,1.5,2.5c0.2,0.3,0.1,0.5-0.2,0.7c-0.3,0.2-0.5,0.3-0.8,0.5
		c-0.3,0.2-0.6,0.1-0.7-0.2c-0.5-0.8-1-1.7-1.4-2.5c-0.2-0.3-0.1-0.5,0.2-0.7c0.3-0.2,0.5-0.3,0.8-0.5C11,3.6,11.1,3.6,11.2,3.5z"/>
	<path class="st0" d="M30,9.7c-0.1,0.1-0.2,0.3-0.3,0.4c-0.8,0.5-1.7,1-2.5,1.5c-0.3,0.2-0.5,0.1-0.7-0.2c-0.2-0.3-0.3-0.5-0.5-0.8
		c-0.2-0.3-0.1-0.5,0.2-0.7c0.8-0.5,1.7-1,2.5-1.5c0.2-0.1,0.5-0.1,0.6,0.1c0.2,0.3,0.4,0.7,0.6,1C29.9,9.6,29.9,9.6,30,9.7z"/>
	<path class="st0" d="M23.2,7.7c-0.2-0.1-0.4-0.2-0.6-0.3c-0.9-0.5-0.9-0.5-0.4-1.4c0.4-0.7,0.8-1.3,1.1-2c0.3-0.4,0.4-0.5,0.9-0.2
		c0.2,0.1,0.5,0.3,0.7,0.4c0.3,0.2,0.4,0.4,0.2,0.7c-0.5,0.9-1,1.7-1.5,2.6C23.5,7.5,23.3,7.6,23.2,7.7z"/>
</g>
</svg>
