<?xml version="1.0" encoding="utf-8"?>
<!-- Generator: Adobe Illustrator 21.0.0, SVG Export Plug-In . SVG Version: 6.00 Build 0)  -->
<svg version="1.1" id="Layer_1" xmlns="http://www.w3.org/2000/svg" xmlns:xlink="http://www.w3.org/1999/xlink" x="0px" y="0px"
	 viewBox="0 0 32 32" style="enable-background:new 0 0 32 32;" xml:space="preserve">
<style type="text/css">
	.st0{fill:#FFFFFF;}
</style>
<g>
	<path class="st0" d="M16,28.4c-4.9,0-9.8,0-14.7,0c-0.6,0-0.8-0.2-0.8-0.8c0-2.3,0-4.6,0-6.8c0-0.6,0.2-0.8,0.8-0.8
		c3,0,5.9,0,8.9,0c0.2,0,0.3,0.1,0.4,0.2c1.6,1.6,3.2,3.3,4.7,4.9c0.5,0.5,0.9,0.5,1.3,0c1.6-1.6,3.2-3.3,4.8-4.9
		c0.1-0.1,0.2-0.2,0.4-0.2c3,0,5.9,0,8.9,0c0.5,0,0.8,0.2,0.8,0.8c0,2.3,0,4.6,0,6.9c0,0.5-0.3,0.8-0.8,0.8
		C25.8,28.4,20.9,28.4,16,28.4z M29,23.3c0.5,0,0.9-0.4,0.9-0.9c0-0.5-0.4-0.9-0.9-0.9c-0.5,0-0.9,0.4-0.9,0.9
		C28.1,22.9,28.5,23.3,29,23.3z M27,22.4c0-0.5-0.4-0.9-0.8-0.9c-0.5,0-0.9,0.4-0.9,0.9c0,0.5,0.4,0.9,0.9,0.9
		C26.6,23.3,27,22.9,27,22.4z M23.3,23.3c0.5,0,0.9-0.4,0.9-0.9c0-0.5-0.4-0.9-0.9-0.9c-0.5,0-0.9,0.4-0.9,0.9
		C22.4,22.9,22.8,23.3,23.3,23.3z"/>
	<path class="st0" d="M21.2,9.3c0,1.7,0,3.4,0,5c0,0.4,0.1,0.5,0.5,0.5c0.8-0.1,1.5-0.1,2.3-0.2c0.2,0,0.4,0,0.4,0.2
		c0.1,0.2,0,0.3-0.1,0.5c-2.7,2.8-5.4,5.6-8.1,8.3c-0.2,0.2-0.4,0.2-0.6,0c-2.7-2.8-5.4-5.6-8.1-8.3c-0.1-0.1-0.2-0.3-0.1-0.5
		c0.1-0.2,0.2-0.2,0.4-0.2c0.7,0.1,1.4,0.1,2.1,0.2c0.1,0,0.2,0,0.4,0c0.2,0,0.3-0.1,0.3-0.3c0-0.1,0-0.1,0-0.2c0-3.4,0-6.7,0-10.1
		c0-0.5,0.1-0.6,0.5-0.6c3.1,0,6.3,0,9.4,0c0.4,0,0.5,0.1,0.5,0.5C21.2,5.9,21.2,7.6,21.2,9.3z"/>
</g>
</svg>
