<?xml version="1.0" encoding="utf-8"?>
<!-- Generator: Adobe Illustrator 21.0.0, SVG Export Plug-In . SVG Version: 6.00 Build 0)  -->
<svg version="1.1" id="Layer_1" xmlns="http://www.w3.org/2000/svg" xmlns:xlink="http://www.w3.org/1999/xlink" x="0px" y="0px"
	 viewBox="0 0 32 32" style="enable-background:new 0 0 32 32;" xml:space="preserve">
<style type="text/css">
	.st0{fill:#FFFFFF;}
</style>
<g>
	<path class="st0" d="M31.5,16.1c-0.3-0.3-0.4-0.6-0.7-0.8c-1.6-1.8-3.4-3.4-5.4-4.7c-1.8-1.1-3.6-2-5.7-2.5c-2.7-0.7-5.3-0.6-8,0.1
		L9.1,5.1C8.7,4.6,7.9,4.5,7.3,5L6.3,5.9C5.7,6.4,5.7,7.2,6.1,7.7l16.7,19.2c0.5,0.5,1.3,0.6,1.8,0.1l1.1-0.9
		c0.5-0.5,0.6-1.3,0.1-1.8l-1.8-2c1.9-1,3.6-2.3,5.2-3.8C30,17.7,30.7,16.9,31.5,16.1z M16.8,10.2c0.9,0.1,1.7,0.4,2.4,0.9
		c2.6,1.8,3.3,5.1,1.9,7.7l-1.4-1.6c0.5-1.6-0.1-3.5-1.5-4.4c-0.9-0.6-1.9-0.7-2.8-0.6l-1.4-1.6C14.8,10.2,15.8,10.1,16.8,10.2z
		 M22.6,20.5l-0.5-0.6c0.7-1.2,1.1-2.4,1.1-3.9c0-2-0.8-3.8-2.2-5.2c3,1.1,5.4,2.9,7.6,5.2C26.9,17.9,24.9,19.4,22.6,20.5z"/>
	<path class="st0" d="M13.7,21.4c-2.4-1-4.1-3.6-3.5-6.6L10,14.5c-0.3-0.1-0.7-0.1-1-0.2C8.7,15.6,8.7,16.8,9,18
		c0.4,1.2,1,2.3,1.9,3.2c-3-1.1-5.5-2.9-7.7-5.3c0.7-0.6,1.3-1.3,2-1.9c0.8-0.7,1.7-1.3,2.7-1.9l-1.5-1.7c-2,1.2-3.8,2.8-5.4,4.6
		c-0.2,0.3-0.4,0.5-0.7,0.8c0,0,0,0.1,0,0.1c0.2,0.2,0.4,0.4,0.6,0.7c1.6,1.8,3.4,3.4,5.4,4.7c1.8,1.1,3.6,2,5.7,2.5
		c2.2,0.5,4.3,0.6,6.3,0.3l-2-2.3C15.5,21.9,14.6,21.8,13.7,21.4z"/>
</g>
</svg>
