<?xml version="1.0" encoding="utf-8"?>
<!-- Generator: Adobe Illustrator 21.0.0, SVG Export Plug-In . SVG Version: 6.00 Build 0)  -->
<svg version="1.1" id="Layer_1" xmlns="http://www.w3.org/2000/svg" xmlns:xlink="http://www.w3.org/1999/xlink" x="0px" y="0px"
	 viewBox="0 0 32 32" style="enable-background:new 0 0 32 32;" xml:space="preserve">
<style type="text/css">
	.st0{fill:#FFFFFF;}
</style>
<g>
	<path class="st0" d="M16,2.7c0.2,0.1,0.4,0.1,0.6,0.1c4.9,2.1,9.8,4.2,14.7,6.4c0.1,0,0.2,0.2,0.3,0.2c-0.1,0.1-0.2,0.2-0.3,0.3
		c-4.9,2-9.7,3.9-14.6,5.9c-0.4,0.2-0.8,0.2-1.2,0c-4.8-1.9-9.7-3.9-14.5-5.8c-0.1,0-0.2-0.1-0.3-0.1c-0.2-0.1-0.2-0.2,0-0.3
		C0.7,9.2,0.9,9.1,1,9.1C5.7,7,10.5,4.9,15.3,2.9C15.5,2.8,15.8,2.7,16,2.7z"/>
	<path class="st0" d="M16,22.5c-0.2-0.1-0.4-0.1-0.6-0.2c-4.9-1.9-9.7-3.9-14.6-5.8c-0.1,0-0.2-0.2-0.3-0.2c0.1-0.1,0.2-0.2,0.3-0.3
		c1.8-0.8,3.7-1.6,5.5-2.4c0.1-0.1,0.4,0,0.5,0c2.7,1.1,5.3,2.1,8,3.2c0.8,0.3,1.6,0.3,2.4,0c2.6-1.1,5.3-2.1,8-3.2
		c0.2-0.1,0.4-0.1,0.6,0c1.8,0.8,3.6,1.6,5.4,2.4c0.1,0.1,0.2,0.2,0.3,0.3c-0.1,0.1-0.2,0.2-0.3,0.2c-4.9,1.9-9.7,3.9-14.6,5.8
		C16.4,22.4,16.2,22.4,16,22.5z"/>
	<path class="st0" d="M16,29.3c-0.2-0.1-0.4-0.1-0.6-0.1c-4.9-1.9-9.7-3.9-14.6-5.8c-0.1,0-0.2-0.2-0.3-0.2c0.1-0.1,0.2-0.2,0.3-0.2
		c1.8-0.8,3.7-1.6,5.5-2.4c0.1-0.1,0.3-0.1,0.5,0c2.7,1.1,5.3,2.1,8,3.2c0.8,0.3,1.6,0.3,2.4,0c2.6-1.1,5.3-2.1,7.9-3.2
		c0.2-0.1,0.4-0.1,0.6,0c1.8,0.8,3.6,1.5,5.3,2.3c0.1,0,0.1,0,0.2,0.1c0.1,0.1,0.2,0.1,0.2,0.2c0,0-0.1,0.1-0.2,0.2
		c-0.4,0.2-0.9,0.4-1.3,0.5c-4.4,1.8-8.8,3.5-13.2,5.3C16.5,29.2,16.3,29.3,16,29.3z"/>
</g>
</svg>
