<?xml version="1.0" encoding="utf-8"?>
<!-- Generator: Adobe Illustrator 21.0.0, SVG Export Plug-In . SVG Version: 6.00 Build 0)  -->
<svg version="1.1" id="Layer_1" xmlns="http://www.w3.org/2000/svg" xmlns:xlink="http://www.w3.org/1999/xlink" x="0px" y="0px"
	 viewBox="0 0 32 32" style="enable-background:new 0 0 32 32;" xml:space="preserve">
<style type="text/css">
	.st0{fill:#FFFFFF;}
</style>
<g>
	<path class="st0" d="M29,20c0-2.8,0-5.6,0-8.5c0-0.2,0-0.4,0-0.6c-8.6,0-17.2,0-25.9,0c0,0.1,0,0.1,0,0.2c0,5.9,0,11.8,0,17.7
		c0,0.9,0.7,1.6,1.6,1.6c7.6,0,15.1,0,22.7,0c0.2,0,0.4,0,0.6-0.1c0.7-0.2,1-0.8,1-1.6C29,25.9,29,23,29,20z M11.1,29.7h-0.6v-2.6
		l-0.7,2.6H9.1l-0.7-2.6v2.6H7.9v-3.3h1l0.6,2.3l0.6-2.3h1V29.7z M14.4,29.3c-0.3,0.3-0.7,0.5-1.2,0.5c-0.5,0-0.9-0.2-1.2-0.4
		c-0.3-0.3-0.4-0.7-0.4-1.2c0-0.3,0.1-0.6,0.2-0.9c0.1-0.2,0.2-0.3,0.3-0.5c0.1-0.1,0.3-0.2,0.4-0.3c0.2-0.1,0.4-0.1,0.7-0.1
		c0.5,0,0.9,0.2,1.2,0.5c0.3,0.3,0.4,0.7,0.4,1.3C14.8,28.6,14.7,29,14.4,29.3z M12.8,24.1c-0.9,0-1.7-0.3-2.3-0.8
		c-0.6-0.5-1-1.2-1.1-2.1l1.9-0.2c0.1,0.5,0.2,0.9,0.5,1.1c0.3,0.3,0.6,0.4,1,0.4c0.4,0,0.8-0.2,1-0.5c0.3-0.3,0.4-0.7,0.4-1.3
		c0-0.5-0.1-0.9-0.4-1.2c-0.3-0.3-0.6-0.4-1-0.4c-0.3,0-0.6,0-0.9,0.1l0.2-1.6c0.5,0,0.9-0.1,1.2-0.3s0.4-0.6,0.4-1
		c0-0.3-0.1-0.6-0.3-0.8c-0.2-0.2-0.5-0.3-0.8-0.3c-0.3,0-0.6,0.1-0.9,0.4c-0.2,0.2-0.4,0.6-0.4,1l-1.8-0.3c0.1-0.6,0.3-1.1,0.6-1.5
		c0.3-0.4,0.6-0.7,1.1-0.9c0.5-0.2,1-0.3,1.5-0.3c1,0,1.7,0.3,2.3,0.9c0.5,0.5,0.7,1.1,0.7,1.7c0,0.9-0.5,1.6-1.5,2.2
		c0.6,0.1,1.1,0.4,1.4,0.9c0.4,0.4,0.5,1,0.5,1.6c0,0.9-0.3,1.7-1,2.3C14.6,23.8,13.8,24.1,12.8,24.1z M18,29.7h-0.7l-1.3-2.2v2.2
		h-0.6v-3.3H16l1.4,2.2v-2.2H18V29.7z M18,16.2c0.5-0.2,1.1-0.5,1.7-1c0.6-0.5,1-1,1.2-1.6h1.6v10.3h-2v-7.4
		C19.9,17.2,19,17.7,18,18V16.2z M21.1,27h-1v2.8h-0.7V27h-1v-0.6h2.6V27z M24.1,29.7h-0.7v-1.4h-1.3v1.4h-0.7v-3.3h0.7v1.3h1.3
		v-1.3h0.7V29.7z"/>
	<path class="st0" d="M13.2,26.9c-0.3,0-0.5,0.1-0.7,0.3c-0.2,0.2-0.3,0.5-0.3,0.9c0,0.4,0.1,0.7,0.3,0.9c0.2,0.2,0.4,0.3,0.7,0.3
		c0.3,0,0.5-0.1,0.7-0.3c0.2-0.2,0.3-0.5,0.3-0.9c0-0.4-0.1-0.7-0.2-0.8C13.7,27,13.5,26.9,13.2,26.9z"/>
	<path class="st0" d="M28.9,5.8c0-0.5-0.3-1-0.8-1.2c-0.3-0.1-0.7-0.2-1-0.2c-0.5,0-1,0-1.5,0c0-0.1,0-0.2,0-0.3c0-0.5,0-1,0-1.5
		c0-0.6-0.5-1-1-1c-0.6,0-1.2,0-1.9,0c-0.6,0-1,0.4-1,1c0,0.2,0,0.5,0,0.7c0,0.4,0,0.7,0,1.1c-3.7,0-7.4,0-11.1,0c0-0.1,0-0.2,0-0.3
		c0-0.5,0-0.9,0-1.4c0-0.7-0.4-1.1-1.1-1.1c-0.6,0-1.1,0-1.7,0C7,1.5,6.6,1.9,6.5,2.7c0,0.5,0,1.1,0,1.7c-0.7,0-1.3,0-1.9,0
		C3.7,4.3,3,5,3,6c0,1.2,0,2.3,0,3.5c0,0.1,0,0.2,0,0.3c8.6,0,17.2,0,25.9,0C28.9,8.4,28.9,7.1,28.9,5.8z"/>
</g>
</svg>
