<?xml version="1.0" encoding="utf-8"?>
<!-- Generator: Adobe Illustrator 21.0.0, SVG Export Plug-In . SVG Version: 6.00 Build 0)  -->
<svg version="1.1" id="Layer_1" xmlns="http://www.w3.org/2000/svg" xmlns:xlink="http://www.w3.org/1999/xlink" x="0px" y="0px"
	 viewBox="0 0 32 32" style="enable-background:new 0 0 32 32;" xml:space="preserve">
<style type="text/css">
	.st0{fill:#FFFFFF;}
</style>
<g>
	<path class="st0" d="M10.8,12.9L6.4,8.6c-0.5-0.5-1-1.6-1-2.4c0-0.5-0.2-0.7-0.4-0.7c-0.2,0-0.4,0.1-0.6,0.3L0.8,9.4
		c-0.5,0.5-0.4,1,0.4,1l0,0l0,0c0.8,0,1.9,0.4,2.4,1L8,15.7c0.3,0.3,0.6,0.4,1,0.4s0.7-0.1,1-0.4l0.8-0.8
		C11.3,14.3,11.3,13.4,10.8,12.9z"/>
	<path class="st0" d="M22.3,12.5H12.2c0.3,0.4,0.4,0.9,0.4,1.4c0,0.8-0.3,1.5-0.8,2L11,16.7c-0.5,0.5-1.2,0.8-2,0.8s-1.5-0.3-2-0.8
		l-3.5-3.5c-0.1,0.2-0.2,0.4-0.2,0.7v11.3c0,0.8,0.6,1.4,1.4,1.4h17.6c0.8,0,1.4-0.6,1.4-1.4V13.9C23.8,13.1,23.1,12.5,22.3,12.5z"
		/>
	<path class="st0" d="M30.2,13.7l-5,1.9v7.9l5,1.9c0.7,0.3,1.3-0.1,1.3-0.9v-9.9C31.5,13.8,30.9,13.4,30.2,13.7z"/>
</g>
</svg>
