<?xml version="1.0" encoding="utf-8"?>
<!-- Generator: Adobe Illustrator 21.0.0, SVG Export Plug-In . SVG Version: 6.00 Build 0)  -->
<svg version="1.1" id="Layer_1" xmlns="http://www.w3.org/2000/svg" xmlns:xlink="http://www.w3.org/1999/xlink" x="0px" y="0px"
	 viewBox="0 0 32 32" style="enable-background:new 0 0 32 32;" xml:space="preserve">
<style type="text/css">
	.st0{fill:#FFFFFF;}
</style>
<g>
	<path class="st0" d="M10.6,1.5c0.7,0,1.3,0.2,1.7,0.7c1.1,1.2,2.4,1.7,4,1.6c1.3-0.1,2.4-0.6,3.3-1.5c0.4-0.4,0.8-0.7,1.4-0.8
		c0.4-0.1,0.7,0,1,0.1c1.2,0.6,2.4,1.2,3.5,2c0.7,0.5,0.9,1.4,0.7,2.2c-0.8,2.2,0.2,5,2.6,6.1c0.4,0.2,0.8,0.3,1.1,0.4
		c0.8,0.2,1.5,1,1.5,1.8c0.1,1.3,0.1,2.6,0,3.9c-0.1,0.8-0.7,1.5-1.5,1.7c-1,0.2-1.9,0.7-2.6,1.4c-1.3,1.4-1.8,3-1.2,4.9
		c0.2,0.6,0.2,1.2-0.1,1.7c-0.1,0.2-0.3,0.5-0.5,0.6c-1.1,0.8-2.2,1.4-3.4,2c-0.8,0.3-1.7,0.2-2.3-0.5c-0.4-0.5-1-0.9-1.5-1.2
		c-1.9-0.9-4.2-0.6-5.7,0.9c-0.1,0.1-0.2,0.2-0.3,0.3c-0.5,0.6-1.6,0.9-2.3,0.5c-1.2-0.6-2.3-1.2-3.3-1.9c-0.7-0.5-1-1.4-0.7-2.2
		c0.5-1.6,0.3-3.1-0.7-4.5c-0.7-1.1-1.8-1.7-3.1-2c-0.9-0.2-1.5-0.9-1.6-1.9c-0.1-1.2-0.1-2.4,0-3.6c0.1-1,0.7-1.7,1.6-1.9
		c2-0.4,3.6-2.1,3.9-4.1c0.1-0.8,0.1-1.5-0.2-2.3c-0.3-0.8,0-1.8,0.8-2.3c1-0.7,2.1-1.3,3.3-1.9C10.2,1.6,10.5,1.5,10.6,1.5z
		 M22.2,16c0-3.4-2.8-6.2-6.2-6.2c-3.4,0-6.2,2.7-6.2,6.2c0,3.4,2.8,6.2,6.2,6.2C19.4,22.2,22.2,19.4,22.2,16z"/>
</g>
</svg>
