<?xml version="1.0" encoding="utf-8"?>
<!-- Generator: Adobe Illustrator 21.0.0, SVG Export Plug-In . SVG Version: 6.00 Build 0)  -->
<svg version="1.1" id="Layer_1" xmlns="http://www.w3.org/2000/svg" xmlns:xlink="http://www.w3.org/1999/xlink" x="0px" y="0px"
	 viewBox="0 0 32 32" style="enable-background:new 0 0 32 32;" xml:space="preserve">
<style type="text/css">
	.st0{fill:#FFFFFF;}
</style>
<g>
	<path class="st0" d="M16,0.5c8.3-0.2,15.3,6.9,15.5,15.1c0.2,8.7-7,15.8-15.4,15.9C7.6,31.5,0.5,24.4,0.5,16C0.5,7.3,8,0.3,16,0.5z
		 M29.3,18.9C29.3,18.9,29.2,18.9,29.3,18.9c-0.1,0-0.1,0-0.1,0c-0.4,0.4-0.7,0.1-0.8-0.3c0-0.1,0-0.1-0.1-0.2
		c0-0.2-0.1-0.5-0.1-0.7c-0.1-0.6-0.6-0.9-1.2-0.9c-0.3,0-0.5,0-0.8,0c-0.5,0-0.9,0-1.3-0.2c-0.1,0-0.3,0-0.4,0
		c-0.3,0.1-0.6,0.1-0.9,0.1c-0.2,0-0.5-0.1-0.7-0.2c-0.4-0.1-0.8-0.2-1.2-0.2c-0.5,0-0.7,0.2-0.8,0.7c-0.1,0.8,0.2,1.2,1.1,1.1
		c0.5-0.1,0.9-0.3,1.4-0.4c0.2,0,0.4-0.1,0.5,0c0.1,0.1,0,0.3-0.1,0.5c-0.2,0.5-0.5,1-0.8,1.5c-0.8,1.3-1.5,2.7-2.2,4.1
		c-0.6,1.2-1,2.4-0.9,3.7c0,0.3,0,0.5-0.1,0.8c-0.1,0.4-0.5,0.8-1,0.8c-0.2,0-0.5-0.1-0.7-0.2c-1-0.4-1.8-1-2.6-1.7
		c-0.2-0.2-0.3-0.3-0.3-0.6c-0.1-0.5-0.2-1-0.3-1.5c-0.2-0.9-0.3-1.8-0.5-2.8c-0.1-0.6-0.3-1.2-0.7-1.7C13.4,20.2,13,20,12.4,20
		c-0.7,0-1.4-0.1-2.1-0.3c-1.6-0.5-2.7-1.9-2.7-3.5c0-1.2,0.5-2.2,1.2-3.1c0.2-0.3,0.5-0.5,0.9-0.6c0.3-0.1,0.7-0.3,1-0.4
		c0.6-0.3,1.2-0.3,1.9,0c0.3,0.1,0.6,0.3,0.9,0.5c0.4,0.3,0.8,0.7,1.2,1c0.5,0.4,1,0.7,1.7,0.9c0.3,0.1,0.5,0,0.7-0.1
		c0.3-0.2,0.5-0.3,0.8-0.5c0.6-0.3,1.1-0.6,1.7-0.9c0.2-0.1,0.3-0.3,0.4-0.4c0.1-0.1,0.1-0.2-0.1-0.3c-0.3-0.1-0.3-0.2-0.1-0.4
		c0.2-0.3,0.5-0.6,0.8-0.9c0.2-0.3,0.2-0.4-0.1-0.5c-0.5-0.3-0.9-0.2-1.3,0c-0.6,0.4-1.1,1.2-0.7,2c0,0,0,0.1,0,0.1c0,0,0,0,0,0
		c0,0,0,0-0.1,0c-0.5,0.1-1-0.1-1.4-0.4c-0.4-0.3-0.7-0.7-1-1.1c-0.3-0.4-0.6-0.7-1-1c-0.4-0.2-0.7-0.3-1.1-0.1
		c-0.2,0.1-0.4,0.2-0.4,0.5c0,0.4-0.3,0.7-0.7,0.7c-0.3,0-0.7,0-1.1,0c-0.2,0-0.4-0.2-0.4-0.3c0-0.1,0.1-0.3,0.3-0.4
		c0.1,0,0.3-0.1,0.4-0.1c0.3-0.1,0.3-0.2,0.2-0.4c-0.1-0.1-0.2-0.3-0.3-0.4c-0.1-0.1-0.2-0.3-0.3-0.5c0.1,0,0.2,0,0.2-0.1
		c0.3,0,0.5,0,0.8-0.1c0.5-0.1,1-0.3,1.4-0.7C14,8.3,14,8.1,14.1,8c0-0.1,0.1-0.2,0.2-0.2c0.3-0.1,0.5,0,0.8,0.2
		c0.4,0.2,0.8,0.4,1.2,0.5c0.1,0,0.2,0.1,0.3,0c0.6-0.3,1-0.7,1.1-1.4c0.1-0.3-0.1-0.5-0.4-0.6c-0.3-0.1-0.6,0-0.9,0.1
		c-0.1,0-0.2,0.1-0.3,0.1c-0.2,0.1-0.2,0-0.2-0.2c0-0.2,0.1-0.4,0.2-0.6c0.2-0.3,0.5-0.6,0.8-0.8c0.7-0.6,1.6-1.1,2.5-1.3
		c0.2,0,0.4,0,0.6,0.2c0.3,0.3,0.6,0.4,1,0.5c0.3,0,0.6,0,0.8-0.3c0.2-0.3,0.2-0.4-0.2-0.6c-2.6-1.1-5.3-1.4-8.1-0.9
		C11.5,3,9.8,3.8,8.2,4.9C8.1,5,8,5,8,5.1c0.2,0.2,0.4,0.3,0.5,0.5c0.2,0.2,0.2,0.2,0,0.4C8.4,6.2,8.3,6.3,8.2,6.5
		C7.9,7.1,7.4,7.7,6.9,8.1C6.2,8.8,5.4,9.3,4.4,9.2c-0.1,0-0.1,0.1-0.2,0.1C4.1,9.5,4,9.7,3.9,9.8c-0.6,1.3-1.1,2.6-1.3,4
		c0,0.2,0,0.3,0.2,0.3c0.4,0.2,0.7,0.4,1,0.7c0.4,0.4,0.4,0.7,0,1.1c-0.2,0.2-0.4,0.4-0.5,0.7c-0.5,0.8-0.8,1.6-0.5,2.6
		C3.4,21.3,4.4,23.3,6,25c1.3,1.5,2.9,2.7,4.7,3.5c2,0.9,4.2,1.2,6.4,1c2.4-0.2,4.6-0.9,6.6-2.4c2.4-1.8,4.2-4,5.2-6.9
		C29,19.8,29.1,19.3,29.3,18.9z"/>
</g>
</svg>
