<?xml version="1.0" encoding="utf-8"?>
<!-- Generator: Adobe Illustrator 21.0.0, SVG Export Plug-In . SVG Version: 6.00 Build 0)  -->
<svg version="1.1" id="Layer_1" xmlns="http://www.w3.org/2000/svg" xmlns:xlink="http://www.w3.org/1999/xlink" x="0px" y="0px"
	 viewBox="0 0 32 32" style="enable-background:new 0 0 32 32;" xml:space="preserve">
<style type="text/css">
	.st0{fill:#FFFFFF;}
</style>
<g>
	<path class="st0" d="M4,5.7c0-1.1,0-2.2,0-3.4c0.1,0,0.3,0,0.4,0c1.7,0,3.5,0,5.2,0c0.2,0,0.4-0.1,0.6-0.2c0.4-0.4,0.9-0.9,1.3-1.3
		c0.1-0.1,0.3-0.2,0.5-0.2c2.7,0,5.4,0,8,0c0.2,0,0.4,0.1,0.5,0.2c0.4,0.4,0.8,0.8,1.3,1.2c0.1,0.1,0.4,0.2,0.6,0.2
		c1.7,0,3.5,0,5.2,0c0.1,0,0.3,0,0.5,0c0,1.2,0,2.3,0,3.4C20,5.7,12,5.7,4,5.7z"/>
	<path class="st0" d="M5.6,7.4c0,0.2,0,0.3-0.2,0.4c0,6.7,2,13.4,2,20.1c0,2.1,1.5,3.6,3.6,3.6c4.6,0,5.1,0,9.6,0
		c2.1,0,3.6-1.5,3.6-3.6c0-6.7,2-13.4,2-20.1c0-0.1,0-0.2,0-0.4C19.5,7.4,12.6,7.4,5.6,7.4z M12.4,25.1h-2V12.4h2V25.1z M17,25.1h-2
		V12.4h2V25.1z M21.6,25.1h-2V12.4h2V25.1z"/>
</g>
</svg>
