
<svg xmlns="http://www.w3.org/2000/svg" version="1.1" xmlns:xlink="http://www.w3.org/1999/xlink" preserveAspectRatio="none" x="0px" y="0px" width="32px" height="32px" viewBox="0 0 32 32">
<defs>
<g id="Layer1_0_FILL">
<path fill="#FFFFFF" stroke="none" d="
M 1879.25 281.75
L 1881.1 283.6 1879.9 284.8 1878.05 282.95 1876.2 284.8 1879.3 287.9 1877.9 289.3 1874.8 286.2 1872.95 288.05 1874.8 289.9 1873.55 291.15 1871.7 289.3 1869.85 291.15 1872.95 294.25 1871.55 295.65 1868.45 292.55 1866.45 294.55 1872.2 300.3 1890.4 282.1 1884.65 276.35 1882.5 278.5 1885.6 281.6 1884.2 283 1881.1 279.9 1879.25 281.75 Z"/>
</g>
</defs>

<g transform="matrix( 1.25445556640625, 0, 0, 1.253631591796875, -2340.4,-345.45) ">
<use xlink:href="#Layer1_0_FILL"/>
</g>
</svg>
