<?xml version="1.0" encoding="utf-8"?>
<!-- Generator: Adobe Illustrator 21.0.0, SVG Export Plug-In . SVG Version: 6.00 Build 0)  -->
<svg version="1.1" id="Layer_1" xmlns="http://www.w3.org/2000/svg" xmlns:xlink="http://www.w3.org/1999/xlink" x="0px" y="0px"
	 viewBox="0 0 32 32" style="enable-background:new 0 0 32 32;" xml:space="preserve">
<style type="text/css">
	.st0{fill:#FFFFFF;}
</style>
<g>
	<g>
		<rect x="9.3" y="19" class="st0" width="3.8" height="2.4"/>
		<polygon class="st0" points="3.2,16.6 0.8,16.6 0.8,21.4 5.6,21.4 5.6,19 3.2,19 		"/>
		<rect x="0.8" y="9.1" class="st0" width="2.4" height="3.8"/>
		<polygon class="st0" points="0.8,5.3 3.2,5.3 3.2,2.9 5.6,2.9 5.6,0.5 0.8,0.5 		"/>
		<rect x="9.3" y="0.5" class="st0" width="3.8" height="2.4"/>
		<polygon class="st0" points="16.9,0.5 16.9,2.9 19.3,2.9 19.3,5.3 21.7,5.3 21.7,0.5 		"/>
		<rect x="19.3" y="9.1" class="st0" width="2.4" height="3.8"/>
	</g>
	<g>
		<path class="st0" d="M22.2,31.5l-2.1,0l-6.2-17.2l1.6-1.4l15.7,8.7L31,23.7l-6.2,1.7L22.2,31.5z M17.1,16.3l4.1,11.5l1.6-3.9
			l0.8-0.7l4-1.1L17.1,16.3z"/>
	</g>
</g>
</svg>
