<?xml version="1.0" encoding="utf-8"?>
<!-- Generator: Adobe Illustrator 21.0.0, SVG Export Plug-In . SVG Version: 6.00 Build 0)  -->
<svg version="1.1" id="Layer_1" xmlns="http://www.w3.org/2000/svg" xmlns:xlink="http://www.w3.org/1999/xlink" x="0px" y="0px"
	 viewBox="0 0 32 32" style="enable-background:new 0 0 32 32;" xml:space="preserve">
<style type="text/css">
	.st0{fill:#FFFFFF;}
</style>
<g>
	<path class="st0" d="M31.4,26.5c-0.3,2.4-2,4.3-4.4,4.9c-0.9,0.2-1.6,0.2-2.1,0.1c-1-0.1-1.8-0.5-2.6-1c-1.7-1.3-2.6-3-2.4-5.2
		c0-0.2-0.1-0.3-0.2-0.4c-3-1.5-6-3-9-4.5c-0.2-0.1-0.3-0.1-0.5,0.1c-3.3,2.9-8.4,1.3-9.5-3c-0.2-0.7-0.2-1.5-0.1-2.2
		C1,13,2.2,11.3,4.4,10.6c2.2-0.8,4.1-0.3,5.9,1.2c0.2,0.2,0.3,0.2,0.5,0.1c2.9-1.5,5.8-3,8.7-4.4c0.4-0.2,0.7-0.4,0.5-0.9
		c0-0.1,0-0.1,0-0.2c0-2.6,1.8-5,4.4-5.6c0.7-0.2,1.5-0.3,2.2-0.1c2.5,0.5,4.1,1.8,4.8,4.2c0.2,0.5,0.3,1.9,0.1,2.6
		c-0.9,4.5-6,6.3-9.5,3.4c-0.1-0.1-0.2-0.2-0.4-0.1c-3.1,1.6-6.1,3.1-9.2,4.7c-0.2,0.1-0.2,0.2-0.2,0.4c0,0.2,0,0.4,0,0.7
		c-0.1,0.2,0,0.3,0.2,0.4c3,1.5,6,3,9,4.5c0.3,0.1,0.4,0.1,0.6-0.1c3.2-2.7,8.1-1.2,9.3,2.9C31.5,25.1,31.5,25.8,31.4,26.5z"/>
</g>
</svg>
