<?xml version="1.0" encoding="utf-8"?>
<!-- Generator: Adobe Illustrator 21.0.0, SVG Export Plug-In . SVG Version: 6.00 Build 0)  -->
<svg version="1.1" id="Layer_1" xmlns="http://www.w3.org/2000/svg" xmlns:xlink="http://www.w3.org/1999/xlink" x="0px" y="0px"
	 viewBox="0 0 32 32" style="enable-background:new 0 0 32 32;" xml:space="preserve">
<style type="text/css">
	.st0{fill:#FFFFFF;}
</style>
<g>
	<path class="st0" d="M0.5,15.9c0.2-0.3,0.4-0.5,0.7-0.8c2.6-2.9,5.6-5.2,9.3-6.5c3.1-1.1,6.2-1.3,9.4-0.5c2,0.5,3.9,1.4,5.7,2.5
		c2,1.3,3.8,2.8,5.4,4.7c0.2,0.2,0.4,0.5,0.7,0.8c-0.8,0.8-1.5,1.6-2.3,2.4c-1.8,1.7-3.7,3.1-5.9,4.2c-3.6,1.7-7.3,2.3-11.2,1.3
		c-2-0.5-3.9-1.4-5.7-2.5c-2-1.3-3.8-2.8-5.4-4.7c-0.2-0.2-0.4-0.5-0.6-0.7C0.5,16,0.5,16,0.5,15.9z M10.3,14.5
		c-0.7,3.1,0.9,5.8,3.4,6.9c2.6,1.1,5.5,0.2,7.1-2.1c1.6-2.3,1.3-5.4-0.7-7.4c-1-1-2.2-1.6-3.6-1.7c-1.7-0.2-3.3,0.4-4.6,1.6
		c-0.2-0.3-0.5-0.5-0.7-0.8c-0.1-0.2-0.3-0.2-0.5-0.1c-2,0.8-3.8,1.9-5.5,3.3c-0.7,0.6-1.4,1.2-2,1.9c2.2,2.3,4.7,4.1,7.7,5.3
		c-0.9-0.9-1.6-2-1.9-3.2c-0.4-1.2-0.4-2.5-0.1-3.7C9.4,14.4,9.8,14.5,10.3,14.5z M21,10.8c1.4,1.5,2.2,3.2,2.2,5.2
		c0,2-0.8,3.8-2.2,5.2c3-1.1,5.5-2.9,7.6-5.2C26.4,13.7,24,11.9,21,10.8z"/>
	<path class="st0" d="M12.3,14.9c1,0.2,1.9,0.3,2.9,0.5c-0.7-0.8-1.3-1.5-1.9-2.1c1-1.1,3.2-1.6,4.9-0.5c1.7,1.1,2.2,3.3,1.3,5.1
		c-1,1.8-3.1,2.5-5,1.7C12.6,18.8,11.6,16.7,12.3,14.9z"/>
</g>
</svg>
