
<svg xmlns="http://www.w3.org/2000/svg" version="1.1" xmlns:xlink="http://www.w3.org/1999/xlink" preserveAspectRatio="none" x="0px" y="0px" width="32px" height="32px" viewBox="0 0 32 32">
<defs>
<g id="Layer1_0_FILL">
<path fill="#FFFFFF" stroke="none" d="
M 1938.8 341.1
L 1924.8 341.1
Q 1919.8 341.1 1919.8 346.1
L 1919.8 360.1
Q 1919.8 365.1 1924.8 365.1
L 1938.8 365.1
Q 1943.8 365.1 1943.8 360.1
L 1943.8 346.1
Q 1943.8 341.1 1938.8 341.1
M 1934.9 348.35
L 1936.65 354.85 1938.4 348.35 1941.3 348.35 1941.3 357.85 1939.45 357.85 1939.45 350.4 1937.6 357.85 1935.7 357.85 1933.8 350.4 1933.8 357.85 1932 357.85 1932 348.35 1934.9 348.35
M 1924.25 348.35
L 1924.25 352.6 1928.15 348.35 1930.8 348.35 1927.2 352.1 1931 357.85 1928.5 357.85 1925.85 353.4 1924.25 355 1924.25 357.85 1922.3 357.85 1922.3 348.35 1924.25 348.35 Z"/>
</g>
</defs>

<g transform="matrix( 1.2487030029296875, 0, 0, 1.2480926513671875, -2396.25,-424.7) ">
<use xlink:href="#Layer1_0_FILL"/>
</g>
</svg>
