<?xml version="1.0" encoding="utf-8"?>
<!-- Generator: Adobe Illustrator 21.0.0, SVG Export Plug-In . SVG Version: 6.00 Build 0)  -->
<svg version="1.1" id="Layer_1" xmlns="http://www.w3.org/2000/svg" xmlns:xlink="http://www.w3.org/1999/xlink" x="0px" y="0px"
	 viewBox="0 0 32 32" style="enable-background:new 0 0 32 32;" xml:space="preserve">
<style type="text/css">
	.st0{fill:#FFFFFF;}
</style>
<g>
	<path class="st0" d="M28.7,25.9c-3.2,3.4-7.8,5.6-12.9,5.6c-4.8,0-9.2-2-12.4-5.1 M3.4,26.4c0,0-0.2-1.7,0-3.7
		c0.4-3.9,3.4-7,7.2-7.7c0.1,0,0.2,0,0.3,0.1c0.5,0.3,0.9,0.5,1.3,0.8c1.2,0.6,2.4,0.7,3.7,0.7c1.7,0,3.3-0.5,4.7-1.5
		c0.1,0,0.2-0.1,0.2-0.1c3.4,0.7,5.8,2.7,6.9,6.1c0.8,2.2,0.8,5,0.8,5"/>
	<path class="st0" d="M22.5,7.2c-0.2,2.7-1.3,5-3.6,6.6c-2.1,1.4-4.5,1.3-6.6-0.3c-2-1.6-3.1-3.7-3.2-6.2C9,4,11.6,1,14.9,0.6
		c3.6-0.5,6.9,2,7.5,5.6C22.5,6.5,22.5,6.8,22.5,7.2z"/>
</g>
</svg>
