<?xml version="1.0" encoding="utf-8"?>
<!-- Generator: Adobe Illustrator 21.0.0, SVG Export Plug-In . SVG Version: 6.00 Build 0)  -->
<svg version="1.1" id="Layer_1" xmlns="http://www.w3.org/2000/svg" xmlns:xlink="http://www.w3.org/1999/xlink" x="0px" y="0px"
	 viewBox="0 0 32 32" style="enable-background:new 0 0 32 32;" xml:space="preserve">
<style type="text/css">
	.st0{fill:#FFFFFF;}
</style>
<g>
	<path class="st0" d="M16.1,18.1c-0.4,0-0.7,0.1-0.9,0.4c-0.2,0.3-0.4,0.7-0.4,1.2c0,0.6,0.1,1.1,0.4,1.4c0.3,0.3,0.6,0.5,1,0.5
		c0.3,0,0.6-0.1,0.9-0.4c0.2-0.3,0.3-0.7,0.3-1.3c0-0.6-0.1-1.1-0.4-1.4C16.8,18.2,16.5,18.1,16.1,18.1z"/>
	<path class="st0" d="M21.4,27.4c0-0.1,0-0.2-0.1-0.3c-0.1-0.1-0.1-0.1-0.2-0.1c-0.1,0-0.2,0-0.5,0h-0.5v0.8h0.5c0.3,0,0.5,0,0.6,0
		c0.1,0,0.1-0.1,0.2-0.1C21.4,27.6,21.4,27.5,21.4,27.4z"/>
	<polygon class="st0" points="16.9,28.4 17.8,28.4 17.4,27.2 	"/>
	<path class="st0" d="M29,20c0-2.8,0-5.6,0-8.5c0-0.2,0-0.4,0-0.6c-8.6,0-17.2,0-25.9,0c0,0.1,0,0.1,0,0.2c0,5.9,0,11.8,0,17.7
		c0,0.9,0.7,1.6,1.6,1.6c7.6,0,15.1,0,22.7,0c0.2,0,0.4,0,0.6-0.1c0.7-0.2,1-0.8,1-1.6C29,25.9,29,23,29,20z M6.1,22.5
		c-0.6-0.5-0.9-1.2-1-2l1.8-0.2c0.1,0.5,0.2,0.8,0.5,1.1c0.3,0.2,0.6,0.4,0.9,0.4c0.4,0,0.7-0.1,1-0.4c0.3-0.3,0.4-0.7,0.4-1.2
		c0-0.5-0.1-0.8-0.4-1.1c-0.3-0.3-0.6-0.4-0.9-0.4c-0.2,0-0.5,0-0.9,0.1l0.2-1.5c0.5,0,0.9-0.1,1.2-0.3c0.3-0.2,0.4-0.5,0.4-0.9
		c0-0.3-0.1-0.6-0.3-0.8c-0.2-0.2-0.5-0.3-0.8-0.3c-0.3,0-0.6,0.1-0.8,0.3c-0.2,0.2-0.4,0.5-0.4,1l-1.7-0.3c0.1-0.6,0.3-1.1,0.5-1.4
		c0.2-0.4,0.6-0.6,1-0.8c0.4-0.2,0.9-0.3,1.5-0.3c0.9,0,1.7,0.3,2.2,0.9c0.5,0.5,0.7,1,0.7,1.6c0,0.9-0.5,1.5-1.4,2.1
		c0.6,0.1,1,0.4,1.3,0.8c0.3,0.4,0.5,0.9,0.5,1.5c0,0.9-0.3,1.6-0.9,2.2c-0.6,0.6-1.4,0.9-2.3,0.9C7.4,23.2,6.7,23,6.1,22.5z
		 M11.5,28.4v1.4h-0.7v-1.4l-1.2-1.9h0.8l0.8,1.3l0.8-1.3h0.8L11.5,28.4z M15.5,29.7H13v-3.3h2.4V27h-1.8v0.7h1.6v0.6h-1.6v0.9h1.8
		V29.7z M18.3,29.7L18,29h-1.3l-0.3,0.7h-0.7l1.3-3.3h0.7l1.3,3.3H18.3z M18.4,22.3c-0.6,0.6-1.3,0.9-2.3,0.9c-1,0-1.8-0.4-2.4-1.1
		c-0.6-0.8-1-2-1-3.8c0-1.8,0.3-3.1,1-3.9c0.7-0.8,1.5-1.2,2.6-1.2c0.7,0,1.4,0.2,1.8,0.6c0.5,0.4,0.8,1,0.9,1.8l-1.8,0.2
		c0-0.4-0.2-0.6-0.3-0.8c-0.2-0.2-0.4-0.3-0.7-0.3c-0.4,0-0.7,0.2-1,0.5c-0.3,0.4-0.4,1.1-0.5,2.2c0.5-0.6,1-0.8,1.7-0.8
		c0.8,0,1.5,0.3,2,0.9c0.6,0.6,0.8,1.4,0.8,2.3C19.3,20.9,19,21.7,18.4,22.3z M21.6,29.7L21.1,29c-0.2-0.3-0.3-0.4-0.3-0.5
		c-0.1-0.1-0.1-0.1-0.2-0.1c-0.1,0-0.2,0-0.3,0h-0.1v1.4h-0.7v-3.3h1.4c0.3,0,0.6,0,0.8,0.1c0.2,0.1,0.3,0.2,0.4,0.3
		c0.1,0.1,0.1,0.3,0.1,0.5c0,0.2-0.1,0.4-0.2,0.6c-0.1,0.2-0.4,0.3-0.6,0.3c0.1,0.1,0.3,0.2,0.4,0.3c0.1,0.1,0.2,0.3,0.4,0.5
		l0.4,0.6H21.6z M26.2,21.9c-0.6,0.9-1.5,1.3-2.6,1.3c-0.9,0-1.6-0.2-2.2-0.7c-0.6-0.5-0.9-1.1-1-2l1.9-0.2c0.1,0.4,0.2,0.8,0.5,1
		c0.3,0.2,0.6,0.4,0.9,0.4c0.4,0,0.7-0.2,1-0.5c0.3-0.3,0.4-0.8,0.4-1.4c0-0.6-0.1-1-0.4-1.3c-0.3-0.3-0.6-0.4-1-0.4
		c-0.5,0-1,0.2-1.4,0.7l-1.5-0.2l1-5.1h4.9v1.8H23l-0.3,1.7c0.4-0.2,0.8-0.3,1.3-0.3c0.8,0,1.5,0.3,2.1,0.9c0.6,0.6,0.9,1.4,0.9,2.4
		C26.9,20.6,26.7,21.3,26.2,21.9z"/>
	<path class="st0" d="M28.9,5.8c0-0.5-0.3-1-0.8-1.2c-0.3-0.1-0.7-0.2-1-0.2c-0.5,0-1,0-1.5,0c0-0.1,0-0.2,0-0.3c0-0.5,0-1,0-1.5
		c0-0.6-0.5-1-1-1c-0.6,0-1.2,0-1.9,0c-0.6,0-1,0.4-1,1c0,0.2,0,0.5,0,0.7c0,0.4,0,0.7,0,1.1c-3.7,0-7.4,0-11.1,0c0-0.1,0-0.2,0-0.3
		c0-0.5,0-0.9,0-1.4c0-0.7-0.4-1.1-1.1-1.1c-0.6,0-1.1,0-1.7,0C7,1.5,6.6,1.9,6.5,2.7c0,0.5,0,1.1,0,1.7c-0.7,0-1.3,0-1.9,0
		C3.7,4.3,3,5,3,6c0,1.2,0,2.3,0,3.5c0,0.1,0,0.2,0,0.3c8.6,0,17.2,0,25.9,0C28.9,8.4,28.9,7.1,28.9,5.8z"/>
</g>
</svg>
